<svg width="5" height="10" viewBox="0 0 5 10" fill="none" xmlns="http://www.w3.org/2000/svg">
<path d="M4.77537 4.35872L1.0252 0.191346C0.897715 0.0507239 0.733635 -0.0167999 0.568892 0.00356129C0.404149 0.0239225 0.25217 0.130509 0.146236 0.299981C0.040302 0.469452 -0.0109532 0.687996 0.00369431 0.907755C0.0183419 1.12751 0.0976984 1.33058 0.224386 1.47248L3.39836 4.99931L0.224386 8.52614C0.0972101 8.66784 0.0174151 8.87107 0.00252943 9.09117C-0.0123562 9.31128 0.038885 9.53026 0.144997 9.70002C0.251109 9.86977 0.403413 9.97642 0.568453 9.99654C0.733493 10.0166 0.897772 9.94858 1.0252 9.80729L4.77537 5.63985C4.84569 5.56151 4.90226 5.46354 4.94107 5.35285C4.97988 5.24217 5 5.12147 5 4.99928C5 4.87709 4.97988 4.7564 4.94107 4.64571C4.90226 4.53503 4.84569 4.43706 4.77537 4.35872Z" fill="#DCDDDE"/>
</svg>
