<svg width="19" height="16" viewBox="0 0 19 16" fill="none" xmlns="http://www.w3.org/2000/svg">
<path d="M0.00872416 16C-0.10801 13.4518 0.945079 11.7554 3.26734 10.9134C5.94229 9.94479 8.62468 9.97956 11.1903 11.3232C12.9712 12.2571 13.7684 13.9038 13.53 16H0.00872416Z" fill="#060607"/>
<path d="M6.79667 3.646C7.40945 3.64465 8.00896 3.82437 8.51993 4.1626C9.03091 4.50083 9.43056 4.98248 9.6687 5.54709C9.90685 6.11169 9.97287 6.73407 9.85848 7.33607C9.74409 7.93808 9.45439 8.49286 9.02575 8.93077C8.59711 9.36867 8.04865 9.67017 7.44923 9.79741C6.84981 9.92465 6.22616 9.87195 5.65659 9.64593C5.08703 9.41991 4.59693 9.03065 4.24785 8.52702C3.89878 8.0234 3.70628 7.42787 3.69453 6.81521C3.68994 6.40337 3.76656 5.99467 3.92001 5.61247C4.07345 5.23026 4.30072 4.88204 4.58882 4.58772C4.87692 4.29339 5.22019 4.05873 5.59903 3.89715C5.97787 3.73556 6.38484 3.65022 6.79667 3.646Z" fill="#060607"/>
<path d="M16.1604 6.07762H14.9185V3.67588H12.4473V2.43403H14.8167V0H16.0586V2.32971H18.4951L18.6044 3.62372H16.1604V6.07762Z" fill="#060607"/>
</svg>
