<svg width="19" height="17" viewBox="0 0 19 17" fill="none" xmlns="http://www.w3.org/2000/svg">
<path d="M0.133724 16.3201C0.0169902 13.7718 1.07008 12.0755 3.39234 11.2335C6.06729 10.2649 8.74968 10.2996 11.3153 11.6433C13.0962 12.5772 13.8934 14.2239 13.655 16.3201H0.133724Z" fill="#D2D3D5"/>
<path d="M6.92167 3.96607C7.53445 3.96472 8.13396 4.14444 8.64493 4.48267C9.15591 4.82089 9.55556 5.30255 9.7937 5.86716C10.0318 6.43176 10.0979 7.05414 9.98348 7.65614C9.86909 8.25814 9.57939 8.81293 9.15075 9.25084C8.72211 9.68874 8.17365 9.99024 7.57423 10.1175C6.97481 10.2447 6.35116 10.192 5.78159 9.966C5.21203 9.73998 4.72193 9.35072 4.37285 8.84709C4.02378 8.34347 3.83128 7.74793 3.81953 7.13527C3.81494 6.72344 3.89156 6.31474 4.04501 5.93254C4.19845 5.55033 4.42572 5.20211 4.71382 4.90779C5.00192 4.61346 5.34519 4.3788 5.72403 4.21721C6.10287 4.05563 6.50984 3.97029 6.92167 3.96607Z" fill="#D2D3D5"/>
<path d="M16.2854 6.39768H15.0435V3.99595H12.5723V2.75409H14.9417V0.320068H16.1836V2.64978H18.6201L18.7294 3.94379H16.2854V6.39768Z" fill="#D2D3D5"/>
</svg>
