<svg width="13" height="10" viewBox="0 0 13 10" fill="none" xmlns="http://www.w3.org/2000/svg">
<path d="M10.725 8.75H2.275C2.09625 8.75 1.95 8.89062 1.95 9.0625V9.6875C1.95 9.85938 2.09625 10 2.275 10H10.725C10.9037 10 11.05 9.85938 11.05 9.6875V9.0625C11.05 8.89062 10.9037 8.75 10.725 8.75ZM12.025 2.5C11.4867 2.5 11.05 2.91992 11.05 3.4375C11.05 3.57617 11.0825 3.70508 11.1394 3.82422L9.66875 4.67187C9.35594 4.85156 8.95172 4.75 8.77094 4.44531L7.11547 1.66016C7.33281 1.48828 7.475 1.23047 7.475 0.9375C7.475 0.419922 7.03828 0 6.5 0C5.96172 0 5.525 0.419922 5.525 0.9375C5.525 1.23047 5.66719 1.48828 5.88453 1.66016L4.22906 4.44531C4.04828 4.75 3.64203 4.85156 3.33125 4.67187L1.86266 3.82422C1.9175 3.70703 1.95203 3.57617 1.95203 3.4375C1.95203 2.91992 1.51531 2.5 0.977031 2.5C0.43875 2.5 0 2.91992 0 3.4375C0 3.95508 0.436719 4.375 0.975 4.375C1.02781 4.375 1.08062 4.36719 1.13141 4.35937L2.6 8.125H10.4L11.8686 4.35937C11.9194 4.36719 11.9722 4.375 12.025 4.375C12.5633 4.375 13 3.95508 13 3.4375C13 2.91992 12.5633 2.5 12.025 2.5Z" fill="#FCA31D"/>
</svg>
