<svg width="32" height="32" viewBox="0 0 32 32" fill="none" xmlns="http://www.w3.org/2000/svg">
<rect width="32" height="32" fill="#5865F2"/>
<path d="M9.21097 9.33998C10.5907 8.70497 12.0472 8.25448 13.5434 8C13.7482 8.36793 13.9334 8.74649 14.0984 9.13408C15.6921 8.89266 17.3129 8.89266 18.9066 9.13408C19.0717 8.74653 19.2569 8.36798 19.4616 8C20.9587 8.25662 22.4162 8.70819 23.7973 9.3433C26.5392 13.4213 27.2825 17.3981 26.9108 21.3184C25.3051 22.511 23.5079 23.418 21.5972 24C21.167 23.4183 20.7863 22.8012 20.4592 22.1553C21.0805 21.922 21.6802 21.6342 22.2513 21.2951C22.101 21.1856 21.954 21.0726 21.812 20.9631C20.1502 21.7487 18.3364 22.156 16.5 22.156C14.6636 22.156 12.8499 21.7487 11.1881 20.9631C11.0444 21.0809 10.8974 21.1939 10.7487 21.2951C11.3209 21.6347 11.9217 21.9231 12.5441 22.1569C12.2174 22.8026 11.8367 23.4192 11.4061 24C9.49382 23.4204 7.69521 22.5138 6.08921 21.32C5.65316 16.7738 6.83414 12.8335 9.21097 9.33998ZM19.9885 18.9074C21.0241 18.9074 21.8797 17.9626 21.8797 16.8003C21.8797 15.638 21.0538 14.6849 19.9918 14.6849C18.9297 14.6849 18.0807 15.638 18.0989 16.8003C18.1171 17.9626 18.933 18.9074 19.9885 18.9074ZM13.0116 18.9074C14.0489 18.9074 14.9011 17.9626 14.9011 16.8003C14.9011 15.638 14.0753 14.6849 13.0116 14.6849C11.9479 14.6849 11.1055 15.638 11.1237 16.8003C11.1418 17.9626 11.9561 18.9074 13.0116 18.9074Z" fill="white"/>
</svg>
