<svg width="36" height="36" viewBox="0 0 36 36" fill="none" xmlns="http://www.w3.org/2000/svg">
<path d="M0.000743647 18.0018C-0.0210177 15.6186 0.435027 13.2551 1.34194 11.0511C2.24886 8.847 3.58826 6.84701 5.28105 5.16921C6.97383 3.49141 8.98567 2.16981 11.1978 1.28247C13.4098 0.395127 15.7773 -0.0399662 18.1604 0.00288358C21.7134 0.0344659 25.1776 1.11687 28.1165 3.11371C31.0554 5.11056 33.3375 7.93252 34.6753 11.224C36.0132 14.5156 36.3469 18.1294 35.6344 21.6103C34.9219 25.0911 33.1951 28.2832 30.6716 30.7844C28.148 33.2856 24.9406 34.984 21.4535 35.6657C17.9663 36.3473 14.3555 35.9816 11.0758 34.6148C7.79607 33.2479 4.99431 30.941 3.02347 27.9846C1.05263 25.0283 0.000884021 21.5548 0.000743647 18.0018ZM34 17.8551C33.8667 9.29565 26.4469 2.00276 17.9337 2.00276C9.26722 2.06276 1.80071 9.70896 2.0007 18.3151C2.2007 26.9213 9.74721 34.1408 18.2337 34.0008C26.7202 33.8608 34.0867 26.3413 34 17.8485V17.8551Z" fill="#060607"/>
<path d="M16.0741 18.2552L11.7275 13.4688L12.6009 12.4555L17.7407 16.7419L22.5273 12.3955L23.5473 13.2688L19.254 18.4085L23.6006 23.1949L22.7206 24.2148L17.5874 19.9217L12.8009 24.2681L11.7809 23.3882L16.0741 18.2552Z" fill="#060607"/>
</svg>
