<svg width="36" height="37" viewBox="0 0 36 37" fill="none" xmlns="http://www.w3.org/2000/svg">
<path d="M-0.000232916 18.9975C-0.0219943 16.6143 0.43405 14.2508 1.34097 12.0468C2.24789 9.84273 3.58729 7.84274 5.28007 6.16494C6.97285 4.48713 8.98469 3.16554 11.1968 2.2782C13.4089 1.39085 15.7763 0.955761 18.1594 0.998611C21.7124 1.03019 25.1766 2.11259 28.1155 4.10944C31.0544 6.10629 33.3365 8.92825 34.6744 12.2198C36.0122 15.5113 36.3459 19.1251 35.6334 22.606C34.9209 26.0868 33.1942 29.2789 30.6706 31.7802C28.1471 34.2814 24.9397 35.9798 21.4525 36.6614C17.9654 37.343 14.3545 36.9774 11.0748 35.6105C7.7951 34.2436 4.99333 31.9367 3.02249 28.9804C1.05165 26.024 -9.25416e-05 22.5505 -0.000232916 18.9975ZM33.9991 18.8509C33.8657 10.2914 26.4459 2.99849 17.9327 2.99849C9.26624 3.05849 1.79973 10.7047 1.99973 19.3108C2.19972 27.917 9.74623 35.1365 18.2327 34.9966C26.7192 34.8566 34.0857 27.337 33.9991 18.8442V18.8509Z" fill="#D2D3D5"/>
<path d="M16.0731 19.2509L11.7266 14.4645L12.5999 13.4512L17.7398 17.7376L22.5263 13.3912L23.5463 14.2645L19.2531 19.4042L23.5996 24.1906L22.7197 25.2105L17.5864 20.9174L12.7999 25.2639L11.7799 24.3839L16.0731 19.2509Z" fill="#D2D3D5"/>
</svg>
