<svg width="24" height="20" viewBox="0 0 24 20" fill="none" xmlns="http://www.w3.org/2000/svg">
<path d="M6.46258 19.9999C6.46258 19.5569 6.43924 19.2459 6.46258 18.938C6.70771 16.1734 6.24955 14.0433 3.95581 11.9981C0.675711 9.07632 -0.404038 4.78794 0.13 0.0754395H3.94998C4.15425 1.53317 4.22429 3.04117 4.59199 4.45807C5.82349 9.18942 9.67265 12.3405 14.9255 12.6076C16.7948 12.6739 18.6418 13.0665 20.3943 13.77C24.0421 15.3408 24.2405 16.3901 23.867 19.9999H6.46258Z" fill="#060607"/>
<path d="M14.7506 0.000130224C17.3595 0.000130224 19.3031 2.1993 19.3031 5.07707C19.3031 7.95484 17.2953 10.0692 14.5084 10.0535C11.8499 10.0535 9.9355 7.83231 9.96468 4.81631C9.98511 2.0108 12.0075 -0.0187198 14.7506 0.000130224Z" fill="#060607"/>
</svg>
