<svg width="25" height="20" viewBox="0 0 25 20" fill="none" xmlns="http://www.w3.org/2000/svg">
<path d="M7.31707 19.9995C7.31707 19.5566 7.29373 19.2455 7.31707 18.9377C7.56221 16.173 7.10404 14.0429 4.81031 11.9977C1.5302 9.07596 0.450454 4.78758 0.984492 0.0750732H4.80447C5.00875 1.53281 5.07878 3.04081 5.44648 4.4577C6.67798 9.18906 10.5271 12.3402 15.78 12.6072C17.6493 12.6736 19.4963 13.0662 21.2488 13.7696C24.8966 15.3404 25.095 16.3898 24.7215 19.9995H7.31707Z" fill="#D2D3D5"/>
<path d="M15.6051 -0.000235987C18.214 -0.000235987 20.1575 2.19893 20.1575 5.0767C20.1575 7.95447 18.1498 10.0688 15.3629 10.0531C12.7044 10.0531 10.79 7.83195 10.8192 4.81594C10.8396 2.01043 12.8619 -0.019086 15.6051 -0.000235987Z" fill="#D2D3D5"/>
</svg>