<svg width="20" height="20" viewBox="0 0 20 20" fill="none" xmlns="http://www.w3.org/2000/svg">
<g clip-path="url(#clip0_235_2)">
<path d="M18.75 7.81248C19.2676 7.81248 19.6875 7.39286 19.6875 6.87498C19.6875 6.3571 19.2676 5.93748 18.75 5.93748H15.1567L15.9644 1.41478C16.0553 0.905132 15.7159 0.418069 15.2063 0.327132C14.7009 0.237107 14.2096 0.575238 14.1187 1.08519L13.2522 5.93748H8.19874L9.00635 1.41478C9.09729 0.905132 8.75794 0.418069 8.24829 0.327132C7.74414 0.237107 7.2522 0.575238 7.16065 1.08519L6.29417 5.93748H1.25C0.732419 5.93748 0.3125 6.3571 0.3125 6.87498C0.3125 7.39286 0.732425 7.81248 1.25 7.81248H5.95936L5.17811 12.1875H1.25C0.732419 12.1875 0.3125 12.6071 0.3125 13.125C0.3125 13.6429 0.732425 14.0625 1.25 14.0625H4.84326L4.03564 18.5852C3.9447 19.0948 4.28406 19.5819 4.7937 19.6728C4.84924 19.6829 4.90478 19.6878 4.95972 19.6878C5.40528 19.6878 5.80018 19.3689 5.88135 18.9148L6.74782 14.0625H11.8013L10.9936 18.5852C10.9027 19.0948 11.2421 19.5819 11.7517 19.6728C11.8073 19.6829 11.8628 19.6878 11.9177 19.6878C12.3633 19.6878 12.7582 19.3689 12.8394 18.9148L13.7058 14.0625H18.75C19.2676 14.0625 19.6875 13.6429 19.6875 13.125C19.6875 12.6071 19.2676 12.1875 18.75 12.1875H14.0406L14.8219 7.81248H18.75ZM12.1361 12.1875H7.08264L7.86389 7.81248H12.9174L12.1361 12.1875Z" fill="#D2D3D5"/>
</g>
<defs>
<clipPath id="clip0_235_2">
<rect width="20" height="20" fill="white"/>
</clipPath>
</defs>
</svg>
