<svg width="34" height="14" viewBox="0 0 34 14" fill="none" xmlns="http://www.w3.org/2000/svg">
<path d="M18.7436 2.57826C14.7509 2.57826 10.7582 2.55812 6.76553 2.57826C3.51945 2.60242 1.96133 4.18929 1.89641 7.43551C1.87207 9.17945 1.93699 10.9314 1.84366 12.6714C1.82337 13.0741 1.31212 13.4285 1.03214 13.8071C0.739995 13.4366 0.220622 13.0781 0.192219 12.6995C0.0706317 10.552 0.101818 8.39862 0.285545 6.25543C0.691304 2.90046 2.87023 0.898761 6.28267 0.862513C14.7387 0.769879 23.2029 0.810154 31.6589 0.862513C32.1499 0.862513 32.6327 1.44651 33.1196 1.75663C32.5881 2.02648 32.0606 2.51382 31.525 2.52187C27.2726 2.60645 23.0081 2.57826 18.7436 2.57826Z" fill="#D2D3D5"/>
</svg>
