<svg width="24" height="20" viewBox="0 0 24 20" fill="none" xmlns="http://www.w3.org/2000/svg">
<path d="M19.1236 19.1337H0.170434C-0.49459 16.0249 0.835459 13.7855 3.30727 12.3713C7.47369 9.99965 11.8284 9.99565 15.9868 12.3713C18.4626 13.7895 19.7967 16.0249 19.1236 19.1337Z" fill="#060607"/>
<path d="M9.70529 0.000300218C12.5657 0.000300218 14.4887 2.00339 14.4566 4.92389C14.4566 7.77227 12.4535 9.66319 9.48495 9.61511C6.7247 9.59108 4.8418 7.61203 4.8418 4.80771C4.8418 1.91124 6.79681 -0.027743 9.70529 0.000300218Z" fill="#060607"/>
<path d="M15.314 9.57509C17.3171 5.05613 17.3171 4.42716 15.342 0.260742C17.5334 0.601267 19.0477 2.11159 19.2641 4.17077C19.5365 6.73472 18.2745 8.53749 15.314 9.57509Z" fill="#060607"/>
<path d="M23.9712 19.1698H22.2686C21.3031 16.5618 20.3977 14.102 19.5845 11.9106C22.4689 12.5837 24.2517 15.2237 23.9712 19.1698Z" fill="#060607"/>
</svg>
