<svg width="25" height="20" viewBox="0 0 25 20" fill="none" xmlns="http://www.w3.org/2000/svg">
<path d="M20.0382 19.133H1.08499C0.419961 16.0242 1.75001 13.7848 4.22182 12.3706C8.38824 9.99892 12.7429 9.99492 16.9014 12.3706C19.3772 13.7888 20.7112 16.0242 20.0382 19.133Z" fill="#D2D3D5"/>
<path d="M10.6198 -0.000432204C13.4802 -0.000432204 15.4032 2.00265 15.3712 4.92315C15.3712 7.77154 13.3681 9.66246 10.3995 9.61438C7.63925 9.59034 5.75635 7.61129 5.75635 4.80697C5.75635 1.91051 7.71136 -0.0284754 10.6198 -0.000432204Z" fill="#D2D3D5"/>
<path d="M16.2285 9.57436C18.2316 5.0554 18.2316 4.42643 16.2566 0.26001C18.4479 0.600534 19.9623 2.11086 20.1786 4.17003C20.451 6.73398 19.1891 8.53676 16.2285 9.57436Z" fill="#D2D3D5"/>
<path d="M24.8858 19.1691H23.1832C22.2177 16.5611 21.3123 14.1013 20.499 11.9099C23.3835 12.5829 25.1662 15.223 24.8858 19.1691Z" fill="#D2D3D5"/>
</svg>
