<svg width="80" height="32" viewBox="0 0 80 32" fill="none" xmlns="http://www.w3.org/2000/svg">
<path d="M41.3024 10.3978L45.1085 10.1379C45.1954 10.7954 45.3545 11.2847 45.6151 11.6364C46.0348 12.1869 46.6136 12.4621 47.3806 12.4621C47.945 12.4621 48.3936 12.3245 48.6976 12.0339C48.987 11.8046 49.1606 11.4376 49.1606 11.0553C49.1606 10.6884 49.0015 10.3367 48.7265 10.1073C48.437 9.83207 47.7569 9.55681 46.686 9.31217C44.9349 8.89928 43.6758 8.34881 42.9378 7.64545C42.1997 6.98792 41.7801 6.02462 41.809 5.0001C41.809 4.29672 42.0116 3.59333 42.3878 3.01227C42.822 2.35476 43.4153 1.83487 44.1245 1.54434C44.8915 1.19265 45.9624 1.00916 47.3083 1.00916C48.958 1.00916 50.2171 1.33027 51.0854 1.98778C51.9538 2.63 52.4748 3.66979 52.6338 5.09185L48.8712 5.32121C48.7699 4.70957 48.5673 4.26613 48.2344 3.97561C47.9016 3.68508 47.4674 3.54746 46.9031 3.54746C46.4399 3.54746 46.0926 3.65449 45.8611 3.85328C45.644 4.03677 45.4993 4.31201 45.5138 4.61783C45.5138 4.84719 45.6295 5.06127 45.8032 5.19888C45.9913 5.38238 46.4399 5.55059 47.149 5.70348C48.9002 6.10106 50.1447 6.49864 50.9117 6.91148C51.6787 7.32432 52.2286 7.82896 52.5616 8.42531C52.9086 9.03691 53.0826 9.74032 53.0681 10.459C53.0681 11.3153 52.8364 12.1716 52.3735 12.8902C51.8958 13.6395 51.2301 14.2206 50.4486 14.5723C49.6237 14.9545 48.5818 15.1533 47.3372 15.1533C45.1375 15.1533 43.6179 14.7099 42.7641 13.8077C41.9103 12.9056 41.4037 11.774 41.3024 10.3978ZM0.911725 14.924V1.25381H7.58322C8.8133 1.25381 9.76847 1.36085 10.4197 1.59021C11.0564 1.80429 11.6208 2.24772 11.9971 2.84407C12.4168 3.50159 12.6194 4.26613 12.6049 5.06127C12.6483 6.40689 11.9971 7.69133 10.8828 8.36412C10.4486 8.62407 9.97107 8.80758 9.47901 8.89928C9.84083 9.00634 10.2026 9.18985 10.521 9.40393C10.767 9.618 10.9696 9.86264 11.1578 10.1226C11.3748 10.3825 11.563 10.6731 11.7221 10.9789L13.6614 14.9392H9.11725L6.97538 10.7342C6.70042 10.199 6.46888 9.84733 6.25179 9.67913C5.96239 9.46506 5.61506 9.35805 5.26774 9.35805H4.92041V14.9087H0.911725V14.924ZM4.92041 6.78916H6.61361C6.97538 6.75859 7.3227 6.6974 7.67003 6.60565C7.93055 6.55977 8.16208 6.40689 8.3213 6.1775C8.712 5.62703 8.65413 4.84719 8.17657 4.37317C7.91605 4.14381 7.40956 4.02148 6.68597 4.02148H4.92041V6.78916ZM0 26.6369L3.80608 26.3769C3.89291 27.0344 4.0521 27.5237 4.31259 27.8754C4.7178 28.4259 5.31117 28.7164 6.07813 28.7164C6.64255 28.7164 7.09117 28.5788 7.39507 28.2883C7.68452 28.0436 7.85818 27.6919 7.85818 27.3097C7.85818 26.9427 7.69896 26.591 7.424 26.3616C7.1346 26.0864 6.45439 25.8111 5.36904 25.5665C3.61794 25.1536 2.3589 24.6031 1.62084 23.8998C0.882779 23.2422 0.463097 22.2789 0.492041 21.2544C0.492041 20.551 0.694644 19.8476 1.07091 19.2666C1.50506 18.6091 2.09841 18.0892 2.80753 17.7986C3.57453 17.447 4.64544 17.2635 5.99132 17.2635C7.64109 17.2635 8.90016 17.5846 9.76847 18.2421C10.6368 18.8996 11.1433 19.9241 11.3024 21.3461L7.53979 21.5755C7.43849 20.9639 7.2359 20.5205 6.90306 20.23C6.58468 19.9394 6.13605 19.8018 5.57164 19.8171C5.10854 19.8171 4.76122 19.9241 4.52967 20.1382C4.29812 20.3217 4.16787 20.5969 4.18234 20.9027C4.18234 21.1321 4.29812 21.3461 4.47178 21.4838C4.65991 21.6673 5.10854 21.8355 5.81766 21.9884C7.56873 22.386 8.8133 22.7835 9.58031 23.1964C10.3473 23.6093 10.8972 24.1139 11.2301 24.7102C11.5774 25.3218 11.7511 26.0252 11.7511 26.7286C11.7511 27.5849 11.5051 28.4259 11.0564 29.1446C10.5789 29.8939 9.9132 30.4749 9.13169 30.8266C8.30681 31.2089 7.26483 31.4076 6.02026 31.4076C3.82055 31.4076 2.30101 30.9642 1.44718 30.0621C0.593345 29.1446 0.115774 28.0131 0 26.6369Z" fill="#060607"/>
<path d="M19.2475 25.5664L22.7497 26.6827C22.5615 27.6154 22.1708 28.5023 21.6353 29.2821C21.1433 29.9702 20.4921 30.5055 19.754 30.8571C19.0015 31.2088 18.0463 31.3923 16.8886 31.3923C15.4848 31.3923 14.3271 31.1782 13.4443 30.7501C12.547 30.322 11.7801 29.5574 11.1288 28.4717C10.4776 27.3861 10.1592 25.9946 10.1592 24.2973C10.1592 22.0342 10.7236 20.291 11.8669 19.0831C13.0101 17.8751 14.6165 17.2634 16.7004 17.2634C18.3358 17.2634 19.6093 17.6151 20.5499 18.3032C21.4761 19.0066 22.1708 20.077 22.6339 21.5143L19.1028 22.3401C19.0159 22.0189 18.8857 21.6979 18.712 21.4226C18.495 21.1015 18.22 20.8568 17.8871 20.6734C17.5543 20.4899 17.178 20.4134 16.8017 20.4134C15.89 20.4134 15.1954 20.7957 14.7178 21.5755C14.356 22.1413 14.1679 23.0434 14.1679 24.2667C14.1679 25.7805 14.3849 26.8203 14.8191 27.3861C15.2533 27.9518 15.8611 28.2271 16.657 28.2271C17.424 28.2271 18.0029 27.9977 18.3936 27.5543C18.7844 27.0803 19.0738 26.4227 19.2475 25.5664ZM27.424 17.4928H31.4182V22.2789H35.7887V17.4928H39.8119V31.1629H35.7887V25.6276H31.4182V31.1629H27.424V17.4928Z" fill="#060607"/>
<path d="M39.2617 24.3279C39.2617 22.0954 39.8551 20.3523 41.0273 19.1137C42.1995 17.8751 43.8493 17.2482 45.9477 17.2482C48.104 17.2482 49.7538 17.8598 50.926 19.0831C52.098 20.3064 52.6773 22.019 52.6773 24.2209C52.6773 25.8264 52.4165 27.1261 51.9101 28.1506C51.418 29.1599 50.651 29.9856 49.7103 30.536C48.7407 31.1018 47.5396 31.3923 46.1069 31.3923C44.6452 31.3923 43.4441 31.1477 42.4889 30.6584C41.5048 30.1385 40.6944 29.3281 40.159 28.3341C39.5656 27.2638 39.2617 25.9335 39.2617 24.3279ZM43.256 24.3432C43.256 25.7194 43.5019 26.7133 43.9795 27.325C44.4571 27.9213 45.1228 28.2271 45.9621 28.2271C46.816 28.2271 47.4817 27.9366 47.9593 27.3402C48.4368 26.7439 48.6684 25.6888 48.6684 24.1597C48.6684 22.8753 48.4223 21.9272 47.9303 21.3461C47.4383 20.7498 46.7726 20.4593 45.9332 20.4593C45.1952 20.4287 44.486 20.7651 43.994 21.3615C43.502 21.9578 43.256 22.9517 43.256 24.3432ZM56.7723 24.3279C56.7723 22.0954 57.3661 20.3523 58.538 19.1137C59.7105 17.8751 61.3604 17.2482 63.4585 17.2482C65.6149 17.2482 67.2793 17.8598 68.4367 19.0831C69.5947 20.3064 70.1879 22.019 70.1879 24.2209C70.1879 25.8264 69.9276 27.1261 69.4211 28.1506C68.9287 29.1599 68.1619 29.9856 67.2211 30.536C66.2518 31.1018 65.0502 31.3923 63.6175 31.3923C62.1562 31.3923 60.9552 31.1477 59.9998 30.6584C59.016 30.1385 58.205 29.3281 57.67 28.3341C57.0767 27.2638 56.7723 25.9335 56.7723 24.3279ZM60.7666 24.3432C60.7666 25.7194 61.0128 26.7133 61.4902 27.325C61.9682 27.9213 62.6336 28.2271 63.4731 28.2271C64.3266 28.2271 64.9926 27.9366 65.47 27.3402C65.9479 26.7439 66.1791 25.6888 66.1791 24.1597C66.1791 22.8753 65.9334 21.9272 65.4414 21.3461C64.9489 20.7498 64.2835 20.4593 63.444 20.4593C62.7058 20.4287 61.9822 20.7651 61.5048 21.3615C61.0128 21.9578 60.7666 22.9517 60.7666 24.3432Z" fill="#060607"/>
<path d="M69.7685 17.4929H73.7627V27.799H80.0001V31.1631H69.7539V17.4929H69.7685Z" fill="#060607"/>
<path d="M65.3661 16.7039C69.3874 13.502 70.6274 8.07422 68.1355 4.58065C65.644 1.08706 60.364 0.85063 56.3427 4.05257C52.3214 7.25449 51.0815 12.6823 53.5734 16.1759C56.0648 19.6695 61.3448 19.9059 65.3661 16.7039Z" stroke="#060607" stroke-width="2" stroke-miterlimit="10"/>
<path d="M56.7875 9.3733L58.2348 8.30293L60.0145 10.9788C60.3184 11.407 60.5501 11.8657 60.7236 12.3703C60.8249 12.7526 60.7958 13.1654 60.6514 13.5325C60.4634 13.9912 60.1595 14.3734 59.7543 14.6487C59.2763 15.0004 58.8711 15.1992 58.5241 15.2603C58.1911 15.3215 57.8436 15.2603 57.5252 15.1074C57.1782 14.9239 56.8743 14.664 56.6426 14.3276L57.8873 13.1043C57.9886 13.2725 58.1189 13.4254 58.2634 13.5477C58.3647 13.6242 58.4805 13.6701 58.6109 13.6701C58.7122 13.6701 58.8135 13.6242 58.8857 13.563C59.0306 13.4713 59.1319 13.2878 59.1174 13.1043C59.0737 12.8444 58.9724 12.5844 58.8135 12.3856L56.7875 9.3733ZM61.1288 11.0706L62.4457 9.96965C62.5906 10.1532 62.7787 10.2908 62.9813 10.3672C63.2706 10.459 63.5745 10.3978 63.8208 10.199C63.9943 10.0767 64.1392 9.90846 64.1969 9.69438C64.2836 9.41918 64.1392 9.11335 63.8784 9.0216C63.8353 9.00634 63.7917 8.99103 63.748 8.99103C63.5745 8.97572 63.2706 9.05222 62.8223 9.25098C62.0841 9.57206 61.5049 9.69438 61.0711 9.64856C60.6514 9.60269 60.2608 9.3733 60.0291 8.99103C59.8556 8.73108 59.7683 8.42525 59.7543 8.11942C59.7543 7.76777 59.841 7.41607 60.0291 7.12555C60.3039 6.71266 60.6369 6.36095 61.0421 6.08574C61.6498 5.64229 62.1854 5.42822 62.6483 5.42822C63.1117 5.42822 63.5454 5.6576 63.9506 6.13162L62.6483 7.21725C62.388 6.8656 61.8961 6.7891 61.5631 7.06436L61.5195 7.11024C61.375 7.20199 61.2737 7.33962 61.2156 7.50782C61.1724 7.63014 61.201 7.76777 61.2737 7.87478C61.3314 7.95122 61.4182 8.01241 61.5195 8.01241C61.6353 8.02767 61.8379 7.96653 62.1273 7.8289C62.8509 7.50782 63.401 7.32431 63.7771 7.26312C64.0956 7.20199 64.4286 7.23256 64.7324 7.37019C65.0073 7.49251 65.2389 7.70658 65.3979 7.96654C65.6005 8.27236 65.7163 8.63932 65.7309 9.0216C65.7454 9.41918 65.6441 9.80145 65.4415 10.1378C65.1808 10.5507 64.8483 10.9024 64.4576 11.1776C63.6613 11.7587 63.0104 12.0034 62.4893 11.9116C61.9247 11.8199 61.4618 11.514 61.1288 11.0706Z" fill="#060607"/>
</svg>
