<svg width="15" height="15" viewBox="0 0 15 15" fill="none" xmlns="http://www.w3.org/2000/svg">
<path d="M12.4075 1.80247C12.2601 1.65512 12.0874 1.58247 11.8874 1.58247C11.6875 1.58247 11.5124 1.65512 11.3675 1.80247L10.5748 2.59249C10.3623 2.45501 10.1374 2.33486 9.90232 2.22738C9.66742 2.11989 9.4273 2.02768 9.18476 1.94758V0.732275C9.18476 0.527365 9.1149 0.354868 8.97221 0.212362C8.83007 0.0698558 8.65757 0 8.45247 0H6.92736C6.73232 0 6.56262 0.0698558 6.41508 0.212362C6.27015 0.354868 6.1975 0.527365 6.1975 0.732275V1.84494C5.94266 1.90474 5.69509 1.97981 5.45739 2.07239C5.21764 2.16479 4.99019 2.27003 4.77503 2.38739L3.89744 1.5223C3.75997 1.37737 3.5925 1.3023 3.39001 1.3023C3.18975 1.3023 3.01744 1.37737 2.8699 1.5223L1.80249 2.59249C1.65514 2.73984 1.58249 2.91252 1.58249 3.11222C1.58249 3.31228 1.65514 3.48739 1.80249 3.63232L2.59271 4.42495C2.45523 4.63731 2.33526 4.86234 2.22778 5.09705C2.1201 5.33214 2.02789 5.57244 1.9476 5.8148H0.732657C0.527371 5.8148 0.354872 5.88465 0.212551 6.02716C0.070043 6.16985 0 6.34235 0 6.54745V8.07254C0 8.2672 0.070043 8.43746 0.212364 8.585C0.354686 8.72974 0.527371 8.80239 0.732471 8.80239H1.84478C1.90476 9.05704 1.97965 9.30461 2.07241 9.54212C2.16518 9.78224 2.27006 10.0147 2.38742 10.2396L1.52232 11.102C1.3772 11.2397 1.30231 11.4072 1.30231 11.6099C1.30231 11.8097 1.3772 11.9824 1.52232 12.1299L2.59252 13.2124C2.73987 13.3499 2.91237 13.4177 3.11263 13.4177C3.31232 13.4177 3.48725 13.3501 3.63255 13.2124L4.425 12.4075C4.63737 12.5448 4.86258 12.6648 5.09749 12.7726C5.33258 12.8797 5.57251 12.9725 5.81506 13.0524V14.2675C5.81506 14.4724 5.8851 14.6448 6.02742 14.7871C6.16993 14.93 6.34261 15 6.54753 15H8.07245C8.26749 15 8.43738 14.93 8.58492 14.7871C8.72966 14.6448 8.80231 14.4724 8.80231 14.2675V13.1549C9.05734 13.0951 9.30472 13.02 9.54224 12.9272C9.78236 12.8348 10.015 12.7296 10.2397 12.6122L11.1022 13.4775C11.2398 13.6224 11.4096 13.6975 11.615 13.6975C11.8222 13.6975 11.9922 13.6226 12.1301 13.4775L13.2126 12.4075C13.3501 12.2598 13.4179 12.0873 13.4179 11.8874C13.4179 11.6875 13.3503 11.5124 13.2126 11.3675L12.4077 10.5749C12.5451 10.3623 12.6651 10.1375 12.7728 9.90257C12.8799 9.66767 12.9725 9.42737 13.0526 9.18501H14.2677C14.4726 9.18501 14.6449 9.1146 14.7873 8.97247C14.93 8.82978 15 8.65746 15 8.45237V6.92746C15 6.73242 14.93 6.56272 14.7873 6.41481C14.6449 6.26989 14.4726 6.19742 14.2677 6.19742H13.155C13.0951 5.95246 13.02 5.7075 12.9274 5.46515C12.835 5.22 12.7298 4.99013 12.6124 4.77478L13.4777 3.89758C13.6226 3.76011 13.6977 3.59245 13.6977 3.39015C13.6977 3.1899 13.6228 3.01758 13.4777 2.87005L12.4075 1.80247ZM7.50019 4.5125C7.9102 4.5125 8.29748 4.59018 8.66484 4.74498C9.03014 4.90257 9.34776 5.11494 9.61768 5.38225C9.885 5.65217 10.0974 5.97016 10.255 6.33471C10.4101 6.70225 10.4874 7.0899 10.4874 7.49972C10.4874 7.90973 10.4101 8.29738 10.255 8.66473C10.0974 9.02966 9.885 9.34764 9.61768 9.61756C9.34776 9.88506 9.03014 10.0972 8.66484 10.2548C8.29748 10.41 7.9102 10.4873 7.50019 10.4873C7.09017 10.4873 6.70252 10.41 6.33498 10.2548C5.97023 10.0972 5.65243 9.88506 5.38269 9.61756C5.115 9.34764 4.90264 9.02984 4.74504 8.66473C4.59024 8.29738 4.51256 7.90973 4.51256 7.49972C4.51256 7.0899 4.59024 6.70225 4.74504 6.33471C4.90264 5.96997 5.115 5.65217 5.38269 5.38225C5.65243 5.11494 5.97023 4.90239 6.33498 4.74498C6.70233 4.59018 7.09017 4.5125 7.50019 4.5125Z" fill="#060607"/>
</svg>
