<svg width="14" height="11" viewBox="0 0 14 11" fill="none" xmlns="http://www.w3.org/2000/svg">
<path d="M5.44343 8.58985C5.50607 8.51802 5.5557 8.46153 5.60475 8.40459C7.90329 5.7433 10.2014 3.08171 12.4992 0.419835C12.7291 0.153998 13.0115 0.044072 13.3265 0.0970643C13.8382 0.184655 14.0615 0.618228 13.7625 0.970342C13.2739 1.54581 12.7752 2.11646 12.2806 2.68887C10.244 5.0471 8.2074 7.40547 6.17081 9.764C5.92501 10.0487 5.5947 10.152 5.25258 10.0395C5.12791 9.99793 5.01804 9.9354 4.93173 9.85684C3.65029 8.66853 2.3726 7.47774 1.09865 6.28446C0.699206 5.91045 0.921379 5.41556 1.5164 5.34418C1.78998 5.31133 2.01747 5.3941 2.19238 5.55746C3.11573 6.41818 4.0389 7.27949 4.96186 8.14138C5.11254 8.28328 5.26617 8.42518 5.44343 8.58985Z" fill="#5865F2"/>
</svg>
