<svg width="19" height="21" viewBox="0 0 19 21" fill="none" xmlns="http://www.w3.org/2000/svg">
<path d="M2.13445 5.4989H16.9059C16.9059 9.87681 16.9799 14.1948 16.8214 18.5058C16.8003 19.094 15.645 20.0943 14.9829 20.1225C11.3481 20.281 7.70281 20.2316 4.06453 20.1788C2.84942 20.1612 2.13445 19.4216 2.1274 18.1712C2.11331 14.0117 2.13445 9.85216 2.13445 5.4989ZM8.37905 15.9453V9.73945H6.44192V15.9453H8.37905ZM12.6055 15.9453V9.60561L10.6789 9.69367V15.9488L12.6055 15.9453Z" fill="#D2D3D5"/>
<path d="M18.9592 2.23051V4.22047H0.0845292L0 2.31856H6.26573L6.4524 0.22998H12.5561L12.8062 2.23051H18.9592Z" fill="#D2D3D5"/>
</svg>
