<svg width="96" height="96" viewBox="0 0 96 96" fill="none" xmlns="http://www.w3.org/2000/svg">
<path d="M48.3832 65H34.3527C31.4605 65 30.0297 63.5733 30.0297 60.6415C30.0297 54.1194 30.0297 47.5973 30.0297 41.0753C29.958 40.4964 30.0165 39.9085 30.201 39.3562C30.3854 38.8039 30.6909 38.3017 31.0942 37.8876C31.4975 37.4735 31.9881 37.1586 32.5287 36.9666C33.0693 36.7746 33.6458 36.7106 34.2143 36.7795C35.0142 36.7795 35.7527 36.7795 36.6142 36.7795C37.446 36.8849 38.2894 36.7224 39.0261 36.3147C39.7627 35.907 40.3557 35.2746 40.7218 34.5061C41.2235 33.2829 42.1275 32.2758 43.2785 31.6578C44.4295 31.0399 45.7557 30.8496 47.0294 31.1197C47.581 31.1902 48.1392 31.1902 48.6909 31.1197C52.1523 30.6807 54.9523 31.4489 56.6138 34.9922C56.9615 35.6304 57.4934 36.1442 58.1374 36.4639C58.7814 36.7836 59.5062 36.8938 60.2137 36.7795C66.3674 36.3875 67.1366 38.0024 66.9828 43.7562C66.8289 49.5101 66.9828 54.919 66.9828 60.5004C66.9828 63.636 65.6136 64.9843 62.629 65H48.3832ZM48.5216 61.2373C50.7163 61.2309 52.8596 60.5603 54.6797 59.3105C56.4997 58.0608 57.9145 56.2882 58.7444 54.2177C59.5743 52.1472 59.7819 49.8721 59.341 47.6811C58.9001 45.4902 57.8304 43.4821 56.2678 41.9117C54.7051 40.3412 52.7199 39.2793 50.5641 38.8605C48.4082 38.4417 46.1789 38.6851 44.159 39.5596C42.1391 40.4342 40.4196 41.9005 39.2187 43.7726C38.0179 45.6446 37.3898 47.838 37.4142 50.0745C37.4425 53.059 38.6248 55.9117 40.7044 58.0133C42.7839 60.115 45.5929 61.296 48.5216 61.3V61.2373Z" fill="#2F3136"/>
<path d="M43.3302 2.49992L43.1602 0.169922H52.4602L52.3302 2.49992H43.3302Z" fill="#2F3136"/>
<path d="M0 43.35L2.32 43.5V52.5L0 52.67V43.35Z" fill="#2F3136"/>
<path d="M93.3301 43.51L95.6101 43.35V52.64L93.3301 52.53V43.51Z" fill="#2F3136"/>
<path d="M52.3299 93.5199L52.4899 95.8199H43.1899L43.3099 93.5199H52.3299Z" fill="#2F3136"/>
<path d="M26.2599 7.63992L25.1299 5.51992L33.7799 1.91992L34.5399 4.16992L26.2599 7.63992Z" fill="#2F3136"/>
<path d="M4.04023 34.6899L1.74023 34.0299L5.33023 25.3099L7.47023 26.4599L4.04023 34.6899Z" fill="#2F3136"/>
<path d="M1.74023 62.0099L4.03024 61.3199L7.46024 69.5599L5.33023 70.7099L1.74023 62.0099Z" fill="#2F3136"/>
<path d="M91.6099 61.3099L93.8899 62.0099L90.3299 70.7099L88.1899 69.5699L91.6099 61.3099Z" fill="#2F3136"/>
<path d="M34.5101 91.7999L33.8301 94.0999L25.1201 90.5099L26.2601 88.3799L34.5101 91.7999Z" fill="#2F3136"/>
<path d="M69.3301 88.3699L70.4701 90.4899L61.7901 94.1099L61.0801 91.8099L69.3301 88.3699Z" fill="#2F3136"/>
<path d="M12.3299 18.8199L10.6499 17.4799L17.2999 10.7999L18.6999 12.4799L12.3299 18.8199Z" fill="#2F3136"/>
<path d="M18.8298 83.3199L17.1698 85.3199L10.5698 78.5999L12.3298 77.1699L18.5298 83.5099L18.8298 83.3199Z" fill="#2F3136"/>
<path d="M78.4298 85.3L76.7998 83.3C77.8998 82.3 78.9798 81.3 80.0198 80.25C81.0598 79.2 82.0198 78.12 83.1198 76.98L85.1198 78.65L78.4298 85.3Z" fill="#2F3136"/>
<path d="M61.7901 2.0199L65.5901 3.3899C64.3601 5.6899 64.3601 5.6899 61.1201 4.2699L61.7901 2.0199Z" fill="#2F3136"/>
<path d="M91.4801 34.7499L90.3301 31.4399L92.4201 30.1699L93.7901 34.0299L91.4801 34.7499Z" fill="#2F3136"/>
<path d="M56 50.5628C55.9876 52.046 55.5356 53.4923 54.7012 54.7188C53.8668 55.9452 52.6875 56.8966 51.3123 57.4528C49.9372 58.009 48.428 58.1449 46.9756 57.8434C45.5232 57.5419 44.1928 56.8165 43.1527 55.7589C42.1126 54.7013 41.4095 53.3591 41.1322 51.9019C40.8549 50.4447 41.016 48.938 41.595 47.5724C42.1741 46.2067 43.1451 45.0434 44.3852 44.2296C45.6254 43.4158 47.0791 42.9879 48.5624 43.0003C50.5476 43.029 52.4416 43.839 53.8338 45.2545C55.226 46.6701 56.0043 48.5773 56 50.5628Z" fill="#2F3136"/>
<path d="M81.4399 28.8C78.5932 28.8039 75.8091 27.964 73.4395 26.3863C71.0699 24.8086 69.2211 22.564 68.1267 19.936C67.0323 17.308 66.7413 14.4146 67.2907 11.6213C67.84 8.82805 69.2049 6.26027 71.213 4.24242C73.2211 2.22457 75.7822 0.847188 78.5728 0.284304C81.3633 -0.27858 84.2581 -0.00170696 86.8914 1.07994C89.5247 2.16159 91.7783 3.99947 93.3674 6.36138C94.9566 8.72329 95.8101 11.5032 95.8199 14.35C95.8174 18.1695 94.3037 21.8328 91.6095 24.5401C88.9153 27.2474 85.2594 28.7789 81.4399 28.8ZM82.1799 20.8V15.07H87.8099V13.65H82.0999V8.02999H80.6699V13.7H75.0599V15.17H80.7399V20.87L82.1799 20.8Z" fill="#5865F2"/>
</svg>
