<svg width="96" height="96" viewBox="0 0 96 96" fill="none" xmlns="http://www.w3.org/2000/svg">
<path d="M81.4399 28.8C78.5932 28.8039 75.8091 27.964 73.4395 26.3863C71.0699 24.8086 69.2211 22.564 68.1267 19.936C67.0323 17.308 66.7413 14.4146 67.2907 11.6213C67.84 8.82805 69.2049 6.26027 71.213 4.24242C73.2211 2.22457 75.7822 0.847188 78.5728 0.284304C81.3633 -0.27858 84.2581 -0.00170696 86.8914 1.07994C89.5247 2.16159 91.7783 3.99947 93.3674 6.36138C94.9566 8.72329 95.8101 11.5032 95.8199 14.35C95.8174 18.1695 94.3037 21.8328 91.6095 24.5401C88.9153 27.2474 85.2594 28.7789 81.4399 28.8ZM82.1799 20.8V15.07H87.8099V13.65H82.0999V8.02999H80.6699V13.7H75.0599V15.17H80.7399V20.87L82.1799 20.8Z" fill="#5865F2"/>
<path d="M47.7501 49.17H38.6301C36.7501 49.17 35.8201 48.26 35.8201 46.39C35.8201 42.23 35.8201 38.07 35.8201 33.91C35.7735 33.5408 35.8115 33.1658 35.9314 32.8135C36.0513 32.4612 36.2499 32.1409 36.512 31.8768C36.7742 31.6127 37.0931 31.4118 37.4445 31.2893C37.7959 31.1668 38.1706 31.126 38.5401 31.17C39.0601 31.17 39.5401 31.17 40.1001 31.17C40.6408 31.2372 41.189 31.1336 41.6678 30.8735C42.1467 30.6135 42.5321 30.2101 42.7701 29.72C43.0962 28.9397 43.6838 28.2974 44.432 27.9032C45.1801 27.5091 46.0422 27.3877 46.8701 27.56C47.2287 27.6049 47.5915 27.6049 47.9501 27.56C50.2001 27.28 52.0201 27.77 53.1001 30.03C53.3261 30.437 53.6719 30.7648 54.0905 30.9687C54.5091 31.1726 54.9802 31.2429 55.4401 31.17C59.4401 30.92 59.9401 31.95 59.8401 35.62C59.7401 39.29 59.8401 42.74 59.8401 46.3C59.8401 48.3 58.9501 49.16 57.0101 49.17H47.7501ZM47.8401 46.77C49.2667 46.7659 50.6599 46.3382 51.8429 45.5411C53.026 44.7439 53.9456 43.6133 54.485 42.2927C55.0245 40.972 55.1595 39.5209 54.8728 38.1234C54.5862 36.726 53.8909 35.4451 52.8752 34.4435C51.8595 33.4418 50.5691 32.7644 49.1677 32.4973C47.7664 32.2302 46.3173 32.3854 45.0043 32.9433C43.6913 33.5011 42.5737 34.4363 41.7931 35.6304C41.0125 36.8245 40.6043 38.2235 40.6201 39.65C40.6385 41.5536 41.407 43.3732 42.7588 44.7137C44.1105 46.0542 45.9364 46.8074 47.8401 46.81V46.77Z" fill="#2F3136"/>
<path d="M66.25 67.17V57.27C68.38 57.27 70.52 56.97 72.53 57.94C74.35 58.82 75.18 61.07 74.69 63.54C74.4881 64.5253 73.9655 65.4159 73.2038 66.0727C72.4421 66.7294 71.4843 67.1153 70.48 67.17C69.1 67.29 67.71 67.17 66.25 67.17ZM68.74 65.23C70.18 65.39 71.41 65.23 72.01 63.88C72.3081 63.2959 72.4406 62.6414 72.393 61.9873C72.3454 61.3333 72.1196 60.7048 71.74 60.17C70.99 59.17 69.89 59.17 68.74 59.28V65.23Z" fill="#2F3136"/>
<path d="M50.2601 57.17C53.0901 57.17 55.0301 59.2801 55.0001 62.3301C54.9701 65.3801 52.9301 67.52 50.1801 67.49C47.4301 67.46 45.4201 65.28 45.4401 62.27C45.4601 59.26 47.4001 57.11 50.2601 57.17ZM52.5301 62.35C52.4558 61.7983 52.3523 61.2509 52.2201 60.71C52.1286 60.2497 51.8782 59.8361 51.5125 59.5418C51.1469 59.2474 50.6894 59.0911 50.2201 59.1C49.9883 59.0691 49.7527 59.0841 49.5267 59.1443C49.3007 59.2045 49.0888 59.3086 48.9031 59.4506C48.7173 59.5927 48.5614 59.77 48.4442 59.9724C48.327 60.1748 48.2509 60.3982 48.2201 60.63C48.0476 61.8628 48.1019 63.1168 48.3801 64.3301C48.5554 64.6453 48.8042 64.9136 49.1054 65.1121C49.4066 65.3106 49.7512 65.4334 50.1101 65.4701C50.4688 65.4262 50.8141 65.3062 51.1228 65.1183C51.4314 64.9303 51.6964 64.6786 51.9001 64.38C52.2327 63.7299 52.4461 63.0255 52.5301 62.3V62.35Z" fill="#2F3136"/>
<path d="M23.56 57.3399C23.56 59.3399 23.56 61.2599 23.56 63.1699C23.56 64.6199 24.02 65.2399 25.1 65.2899C26.18 65.3399 26.86 64.6499 26.9 63.2399C26.9 61.2899 26.9 59.3399 26.9 57.3199H29.33C29.33 59.5799 29.43 61.7799 29.33 63.9599C29.23 66.1399 27.56 67.3399 25.33 67.3999C24.3469 67.5069 23.3613 67.2212 22.5878 66.6051C21.8143 65.9889 21.3155 65.0921 21.2 64.1099C21.1122 63.6411 21.0587 63.1665 21.04 62.6899C21.04 60.9299 21.04 59.1799 21.04 57.3399H23.56Z" fill="#2F3136"/>
<path d="M55.3301 67.17C56.2201 64.67 57.0701 62.25 57.9301 59.82C58.1048 59.4206 58.2518 59.0096 58.3701 58.59C58.5801 57.49 59.1801 57.17 60.3001 57.2C60.7015 57.1502 61.1067 57.2562 61.4322 57.4962C61.7578 57.7362 61.9789 58.0919 62.0501 58.49C62.9601 61.28 64.0501 64.02 65.0501 66.9L62.6601 67.27C62.5853 67.1814 62.5215 67.084 62.4701 66.98C62.2201 66.41 62.0801 65.45 61.7101 65.35C60.7222 65.1548 59.7096 65.1176 58.7101 65.24C58.5001 65.24 58.1601 65.64 58.1401 65.88C58.0201 67.18 57.2301 67.38 56.1401 67.22C55.9701 67.17 55.7301 67.17 55.3301 67.17ZM61.1601 63.17L60.1301 59.8L59.0401 63.17H61.1601Z" fill="#2F3136"/>
<path d="M33.5699 63.85V67.17H31.1299V57.17C32.7155 57.1899 34.2985 57.3068 35.8699 57.52C36.5888 57.6522 37.2291 58.0565 37.6575 58.6488C38.0859 59.2412 38.2694 59.9759 38.1699 60.7C38.1369 61.5077 37.8059 62.2745 37.2408 62.8526C36.6758 63.4306 35.9166 63.7788 35.1099 63.83C34.5972 63.8628 34.0832 63.8695 33.5699 63.85ZM33.5199 59.17V61.92C34.9899 62.09 35.7399 61.64 35.7899 60.64C35.8399 59.64 35.1099 59.11 33.5199 59.17Z" fill="#2F3136"/>
<path d="M39.4702 57.3199H41.8102V65.0199H44.8102L45.2102 67.1699H39.4702V57.3199Z" fill="#2F3136"/>
<path d="M43.3302 2.50004L43.1602 0.170044H52.4602L52.3302 2.50004H43.3302Z" fill="#2F3136"/>
<path d="M0 43.35L2.32 43.5V52.5L0 52.67V43.35Z" fill="#2F3136"/>
<path d="M93.3301 43.51L95.6101 43.35V52.64L93.3301 52.53V43.51Z" fill="#2F3136"/>
<path d="M52.3299 93.52L52.4899 95.82H43.1899L43.3099 93.52H52.3299Z" fill="#2F3136"/>
<path d="M26.2599 7.64004L25.1299 5.52004L33.7799 1.92004L34.5399 4.17004L26.2599 7.64004Z" fill="#2F3136"/>
<path d="M4.04023 34.6899L1.74023 34.0299L5.33023 25.3099L7.47023 26.4599L4.04023 34.6899Z" fill="#2F3136"/>
<path d="M1.74023 62.0099L4.03024 61.3199L7.46024 69.5599L5.33023 70.7099L1.74023 62.0099Z" fill="#2F3136"/>
<path d="M91.6099 61.3099L93.8899 62.0099L90.3299 70.7099L88.1899 69.5699L91.6099 61.3099Z" fill="#2F3136"/>
<path d="M34.5101 91.8L33.8301 94.1L25.1201 90.51L26.2601 88.38L34.5101 91.8Z" fill="#2F3136"/>
<path d="M69.3301 88.37L70.4701 90.49L61.7901 94.11L61.0801 91.81L69.3301 88.37Z" fill="#2F3136"/>
<path d="M12.3299 18.8201L10.6499 17.4801L17.2999 10.8L18.6999 12.48L12.3299 18.8201Z" fill="#2F3136"/>
<path d="M18.8298 83.32L17.1698 85.32L10.5698 78.6L12.3298 77.17L18.5298 83.51L18.8298 83.32Z" fill="#2F3136"/>
<path d="M78.4298 85.3L76.7998 83.3C77.8998 82.3 78.9798 81.3 80.0198 80.25C81.0598 79.2 82.0198 78.12 83.1198 76.98L85.1198 78.65L78.4298 85.3Z" fill="#2F3136"/>
<path d="M61.7901 2.02002L65.5901 3.39002C64.3601 5.69002 64.3601 5.69002 61.1201 4.27002L61.7901 2.02002Z" fill="#2F3136"/>
<path d="M91.4801 34.75L90.3301 31.44L92.4201 30.17L93.7901 34.03L91.4801 34.75Z" fill="#2F3136"/>
<path d="M52.6199 39.65C52.6119 40.5993 52.3227 41.5249 51.7886 42.3098C51.2546 43.0947 50.4999 43.7037 49.6198 44.0596C48.7397 44.4156 47.7739 44.5026 46.8444 44.3096C45.9148 44.1166 45.0634 43.6524 44.3977 42.9755C43.7321 42.2987 43.2821 41.4396 43.1046 40.507C42.9272 39.5744 43.0303 38.6101 43.4008 37.7361C43.7714 36.8621 44.3928 36.1176 45.1865 35.5967C45.9802 35.0759 46.9105 34.8021 47.8599 34.81C49.1304 34.8284 50.3425 35.3468 51.2335 36.2527C52.1245 37.1587 52.6226 38.3793 52.6199 39.65Z" fill="#2F3136"/>
</svg>
