<svg width="21" height="21" viewBox="0 0 21 21" fill="none" xmlns="http://www.w3.org/2000/svg">
<path d="M3.94561 15.403H9.55801C9.9676 17.0255 10.3433 18.5261 10.7157 20.0199C7.8858 20.8464 3.66803 18.8445 1.61669 15.6706C0.449 13.8606 -0.102186 11.7211 0.0454684 9.57182C0.193122 7.4225 1.03169 5.37867 2.43592 3.7456C3.84014 2.11254 5.73466 0.977886 7.83648 0.511141C9.9383 0.044395 12.1346 0.270602 14.0974 1.15597C17.9394 2.89027 20.4172 7.06681 19.8519 11.0977C19.4126 10.9036 18.9601 10.7406 18.4979 10.6099C17.567 10.4202 16.5989 10.0781 15.6951 10.1933C12.828 10.5523 9.96083 10.9758 7.14786 11.6058C4.61246 12.1579 3.80343 13.2215 3.94561 15.403ZM13.1529 7.22941C13.1565 6.81572 13.0786 6.40538 12.9237 6.02182C12.7687 5.63826 12.5398 5.28899 12.25 4.99395C11.9602 4.69891 11.6152 4.46388 11.2346 4.30228C10.854 4.14068 10.4453 4.05568 10.0319 4.05212C9.6185 4.04856 9.20844 4.12652 8.82513 4.28154C8.44183 4.43656 8.09279 4.66562 7.79795 4.95562C7.50311 5.24563 7.26823 5.59091 7.10674 5.97175C6.94525 6.35258 6.8603 6.76152 6.85675 7.17521C6.84135 7.59891 6.91387 8.0212 7.06971 8.41546C7.22555 8.80972 7.46134 9.16739 7.76221 9.46591C8.06308 9.76444 8.4225 9.99734 8.81781 10.1499C9.21311 10.3025 9.63573 10.3715 10.059 10.3525C10.4694 10.359 10.8769 10.2825 11.257 10.1275C11.6371 9.97249 11.9819 9.74224 12.2709 9.45056C12.5599 9.15888 12.7869 8.81177 12.9385 8.43009C13.0901 8.0484 13.163 7.64 13.1529 7.22941Z" fill="#D2D3D5"/>
<path d="M20.0209 16.4158C19.9701 18.4482 18.0846 20.2909 16.0739 20.274C15.055 20.2246 14.0911 19.7972 13.3701 19.0751C12.6491 18.353 12.2228 17.388 12.1743 16.3684C12.1743 14.2886 14.1546 12.3375 16.2059 12.4256C18.2572 12.5137 20.0682 14.4106 20.0209 16.4158Z" fill="#D2D3D5"/>
</svg>
